PathFileType        4      (X/Y/Z)      C:\Users\pc\Desktop\IMUTRC\Sujet_01\Sujet_01_Tpose.trc         
DataRate	CameraRate	NumFrames	NumMarkers	Units	OrigDataRate	OrigDataStartFrame	OrigNumFrames
60.0	60.0	4	64	mm	60.0	86	114
Frame#	Time	pHipOrigin			pRightASI			pLeftASI			pRightCSI			pLeftCSI			pRightIschialTub			pLeftIschialTub			pSacrum			pL5SpinalProcess			pL3SpinalProcess			pT12SpinalProcess			pIJ			pT4SpinalProcess			pT8SpinalProcess			pPX			pC7SpinalProcess			pTopOfHead			pRightAuricularis			pLeftAuricularis			pBackOfHead			pRightAcromion			pLeftAcromion			pRightArmLatEpicondyle			pRightArmMedEpicondyle			pLeftArmLatEpicondyle			pLeftArmMedEpicondyle			pRightUlnarStyloid			pRightRadialStyloid			pRightOlecranon			pLeftUlnarStyloid			pLeftRadialStyloid			pLeftOlecranon			pRightTopOfHand			pRightPinky			pRightBallHand			pLeftTopOfHand			pLeftPinky			pLeftBallHand			pRightGreaterTrochanter			pRightKneeLatEpicondyle			pRightKneeMedEpicondyle			pRightPatella			pLeftGreaterTrochanter			pLeftKneeLatEpicondyle			pLeftKneeMedEpicondyle			pLeftPatella			pRightTibialTub			pRightLatMalleolus			pRightMedMalleolus			pLeftTibialTub			pLeftLatMalleolus			pLeftMedMalleolus			pRightHeelFoot			pRightFirstMetatarsal			pRightFifthMetatarsal			pRightPivotFoot			pRightHeelCenter			pRightToe			pLeftHeelFoot			pLeftFirstMetatarsal			pLeftFifthMetatarsal			pLeftPivotFoot			pLeftHeelCenter			pLeftToe			
		X1	Y1	Z1	X2	Y2	Z2	X3	Y3	Z3	X4	Y4	Z4	X5	Y5	Z5	X6	Y6	Z6	X7	Y7	Z7	X8	Y8	Z8	X9	Y9	Z9	X10	Y10	Z10	X11	Y11	Z11	X12	Y12	Z12	X13	Y13	Z13	X14	Y14	Z14	X15	Y15	Z15	X16	Y16	Z16	X17	Y17	Z17	X18	Y18	Z18	X19	Y19	Z19	X20	Y20	Z20	X21	Y21	Z21	X22	Y22	Z22	X23	Y23	Z23	X24	Y24	Z24	X25	Y25	Z25	X26	Y26	Z26	X27	Y27	Z27	X28	Y28	Z28	X29	Y29	Z29	X30	Y30	Z30	X31	Y31	Z31	X32	Y32	Z32	X33	Y33	Z33	X34	Y34	Z34	X35	Y35	Z35	X36	Y36	Z36	X37	Y37	Z37	X38	Y38	Z38	X39	Y39	Z39	X40	Y40	Z40	X41	Y41	Z41	X42	Y42	Z42	X43	Y43	Z43	X44	Y44	Z44	X45	Y45	Z45	X46	Y46	Z46	X47	Y47	Z47	X48	Y48	Z48	X49	Y49	Z49	X50	Y50	Z50	X51	Y51	Z51	X52	Y52	Z52	X53	Y53	Z53	X54	Y54	Z54	X55	Y55	Z55	X56	Y56	Z56	X57	Y57	Z57	X58	Y58	Z58	X59	Y59	Z59	X60	Y60	Z60	X61	Y61	Z61	X62	Y62	Z62	X63	Y63	Z63	X64	Y64	Z64	
86	1.417	0.0	1249.97542	7.653891985579342E-14	28.560419999999983	1347.13128	131.8949100000001	71.36952000000001	1348.07699	-113.7372999999999	-14.690020000000013	1403.6847	102.07355000000008	20.49037000000001	1404.44126	-99.86689999999992	-53.08581000000001	1192.03497	42.55692000000006	-35.495619999999995	1192.41325	-58.44482999999994	-62.35376	1262.39574	-10.844129999999929	-39.27846	1352.80554	-6.683009999999922	-33.41506	1457.08574	-5.8003499999999155	-34.92819	1552.60238	-6.49386999999991	113.42206	1740.35718	20.742560000000122	-23.51664	1730.20657	-5.548159999999897	-33.98249	1647.80377	-6.935199999999903	103.71278	1627.25036	19.733800000000112	-17.40105	1777.99641	-3.026269999999893	39.65674	2017.44999	12.42031000000013	41.29596999999999	1920.29413	74.14360000000012	44.95271000000001	1926.09448	-57.49911999999987	-8.63748	1921.36593	6.809110000000117	-25.34501000000002	1744.70745	176.5954400000001	27.42557000000002	1764.50429	-172.62345999999988	-84.86164000000004	1621.00868	376.39228000000014	-39.278460000000045	1592.44826	372.7355300000001	45.64623000000005	1653.54108	-390.8931499999999	79.25043000000004	1615.8388	-371.9789699999999	-66.26269000000008	1510.80203	562.0034800000001	-91.29246000000008	1543.77576	576.6934900000001	-50.87916000000004	1592.88959	363.78282000000013	103.96497000000006	1539.80378	-564.8405999999999	92.74255000000007	1577.19082	-585.0787799999999	66.07355000000004	1618.92812	-368.4483199999999	-171.6777500000001	1461.6882	694.1505800000001	-104.09106000000008	1467.23636	650.2066200000002	-79.25043000000007	1509.98241	603.6146800000001	89.71628000000008	1511.81078	-737.0857799999999	107.93695000000008	1498.82304	-659.4115299999999	112.53940000000007	1536.46227	-603.1102999999999	-32.658490000000015	1219.90187	140.59544000000008	-52.70753000000001	876.48332	105.16287000000005	-33.22592000000001	876.73551	40.85464000000005	-6.30473000000001	876.04199	81.77233000000005	6.746060000000018	1219.58663	-142.54990999999993	-11.915939999999988	876.10504	-107.05428999999994	-3.8458799999999953	877.30293	-40.35025999999994	29.758320000000012	876.92465	-75.97197999999995	5.043779999999989	839.22238	86.05954000000006	-94.25569000000002	472.53938	94.38178000000002	-76.72854	471.46758	36.88266000000002	43.62872000000001	842.62693	-81.70927999999995	-32.15410999999999	474.30471	-136.18212999999997	-24.02100999999999	468.75654	-76.85463999999997	-121.30297	331.62871	46.84413000000001	58.00349999999999	335.15935	97.91243000000001	15.005249999999979	335.78983	174.89316000000002	58.94920999999998	335.91592	147.59369000000004	-83.53765000000001	330.24167	67.96497	123.00524999999998	340.9597	183.40454000000005	-64.74955999999999	330.80909	-93.05779	121.23992000000001	339.13133	-83.22240999999997	105.73029000000001	334.84412	-169.91242999999997	138.32574000000002	337.87039	-129.87739999999994	-22.19263999999999	329.98948	-100.68650999999998	210.45183000000003	343.85988	-143.11732999999995	
87	1.433	0.0	1249.97542	7.653891985579342E-14	28.497369999999982	1347.13128	131.8949100000001	71.36952000000001	1348.07699	-113.7372999999999	-14.753060000000012	1403.6847	102.07355000000008	20.49037000000001	1404.44126	-99.86689999999992	-53.08581000000001	1192.03497	42.55692000000006	-35.495619999999995	1192.41325	-58.44482999999994	-62.41681	1262.39574	-10.844129999999929	-39.27846	1352.74249	-6.683009999999922	-33.47811	1457.08574	-5.863399999999916	-34.99124	1552.53933	-6.556919999999909	113.35901	1740.35718	20.742560000000122	-23.57968	1730.20657	-5.548159999999897	-34.04553	1647.80377	-6.998249999999903	103.64973	1627.25036	19.670750000000115	-17.4641	1777.99641	-3.0893199999998933	39.59369	2017.44999	12.294220000000129	41.23291999999999	1920.29413	74.08056000000012	44.88967000000001	1926.09448	-57.562169999999874	-8.63748	1921.36593	6.746060000000116	-25.40805000000002	1744.70745	176.5954400000001	27.36252000000002	1764.50429	-172.68650999999988	-84.79859000000005	1620.88258	376.3292300000001	-39.21541000000004	1592.32216	372.6724900000001	45.772330000000046	1653.54108	-390.9561999999999	79.37653000000005	1615.90185	-371.9789699999999	-66.13660000000007	1510.54984	561.8773800000001	-91.16637000000007	1543.58661	576.6304400000001	-50.816110000000045	1592.7635	363.7197700000001	104.28021000000007	1539.80378	-564.8405999999999	92.99474000000006	1577.19082	-585.0787799999999	66.26269000000005	1618.92812	-368.5113699999999	-171.48861000000008	1461.37296	694.0875300000001	-103.90192000000009	1466.98417	650.0805300000001	-79.06129000000007	1509.73022	603.5516300000002	90.09457000000009	1511.74774	-737.0227299999999	108.37828000000009	1498.82304	-659.4115299999999	112.85464000000007	1536.52532	-603.0472599999999	-32.658490000000015	1219.90187	140.59544000000008	-52.70753000000001	876.48332	105.16287000000005	-33.288970000000006	876.73551	40.85464000000005	-6.30473000000001	876.04199	81.77233000000005	6.746060000000018	1219.58663	-142.54990999999993	-11.915939999999988	876.10504	-107.05428999999994	-3.908929999999995	877.30293	-40.35025999999994	29.69527000000001	876.92465	-75.97197999999995	4.980739999999989	839.22238	85.99649000000005	-94.44483000000001	472.60243	94.31873000000002	-76.91768	471.46758	36.81961000000002	43.565670000000004	842.62693	-81.70927999999995	-32.34325999999999	474.36775	-136.24517999999998	-24.210159999999988	468.75654	-76.91767999999998	-121.49211	331.62871	46.78108000000001	57.814359999999986	335.15935	97.84938000000001	14.753059999999978	335.78983	174.83011000000002	58.76006999999998	335.91592	147.53064000000003	-83.72679000000001	330.24167	67.90192	122.81610999999997	340.9597	183.34150000000005	-64.93869999999998	330.80909	-93.12084	121.11383000000001	339.19438	-83.22240999999997	105.54115000000002	334.84412	-169.97546999999997	138.13660000000002	337.87039	-129.87739999999994	-22.381789999999988	330.05252	-100.68650999999998	210.26269000000002	343.85988	-143.11732999999995	
88	1.45	0.0	1249.97542	7.653891985579342E-14	28.497369999999982	1347.19433	131.8949100000001	71.30648000000001	1348.14004	-113.7372999999999	-14.753060000000012	1403.6847	102.07355000000008	20.427320000000012	1404.44126	-99.86689999999992	-53.08581000000001	1192.03497	42.55692000000006	-35.43256999999999	1192.41325	-58.44482999999994	-62.41681	1262.33269	-10.844129999999929	-39.27846	1352.74249	-6.683009999999922	-33.47811	1457.08574	-5.863399999999916	-34.99124	1552.53933	-6.556919999999909	113.35901	1740.35718	20.67951000000012	-23.64273	1730.20657	-5.611209999999897	-34.10858	1647.80377	-6.998249999999903	103.64973	1627.25036	19.670750000000115	-17.4641	1777.99641	-3.1523599999998932	39.65674	2017.44999	12.16813000000013	41.23291999999999	1920.29413	74.01751000000012	44.95271000000001	1926.09448	-57.62521999999987	-8.63748	1921.36593	6.619960000000116	-25.47110000000002	1744.77049	176.5323900000001	27.36252000000002	1764.50429	-172.74954999999989	-84.73555000000005	1620.75649	376.26618000000013	-39.152360000000044	1592.19607	372.5463900000001	45.96147000000005	1653.54108	-390.9561999999999	79.56567000000004	1615.90185	-371.9789699999999	-65.94746000000008	1510.3607	561.7512900000002	-90.97723000000008	1543.33443	576.5043500000002	-50.75306000000004	1592.6374	363.5936800000001	104.59544000000007	1539.74073	-564.7775599999999	93.30998000000007	1577.12777	-585.0787799999999	66.38879000000004	1618.92812	-368.5113699999999	-171.2364200000001	1461.05772	694.0244800000002	-103.71278000000008	1466.66893	649.9544300000001	-78.87215000000008	1509.47804	603.3624900000001	90.53590000000008	1511.62164	-737.0227299999999	108.75656000000008	1498.69695	-659.3484799999999	113.16987000000007	1536.46227	-603.0472599999999	-32.658490000000015	1219.90187	140.59544000000008	-52.77058000000002	876.48332	105.16287000000005	-33.35201000000001	876.73551	40.85464000000005	-6.3677800000000095	876.04199	81.70928000000006	6.809110000000018	1219.58663	-142.54990999999993	-11.978979999999988	876.10504	-107.05428999999994	-3.971979999999995	877.30293	-40.35025999999994	29.69527000000001	876.92465	-75.97197999999995	4.91768999999999	839.15933	85.99649000000005	-94.63397000000002	472.60243	94.31873000000002	-77.10683	471.46758	36.756570000000025	43.565670000000004	842.62693	-81.70927999999995	-32.469349999999984	474.36775	-136.24517999999998	-24.33624999999999	468.81959	-76.91767999999998	-121.61821	331.62871	46.71804000000001	57.688259999999985	335.15935	97.84938000000001	14.626969999999979	335.85287	174.83011000000002	58.570929999999976	335.97897	147.46759000000003	-83.91593000000002	330.30471	67.83888	122.62695999999997	340.9597	183.27845000000005	-65.12783999999999	330.87214	-93.18388	120.92469000000001	339.19438	-83.28545999999997	105.35201000000002	334.90716	-170.03851999999998	138.01050000000004	337.87039	-129.94044999999994	-22.57092999999999	330.05252	-100.74955999999999	210.13659000000004	343.92293	-143.18037999999996	
89	1.467	0.0	1249.97542	7.653891985579342E-14	28.434319999999982	1347.19433	131.8949100000001	71.30648000000001	1348.14004	-113.7372999999999	-14.816110000000013	1403.6847	102.07355000000008	20.427320000000012	1404.44126	-99.92993999999992	-53.08581000000001	1192.03497	42.55692000000006	-35.43256999999999	1192.41325	-58.44482999999994	-62.41681	1262.33269	-10.844129999999929	-39.3415	1352.74249	-6.683009999999922	-33.54115	1457.08574	-5.863399999999916	-34.99124	1552.60238	-6.556919999999909	113.35901	1740.29414	20.61646000000012	-23.57968	1730.20657	-5.674259999999897	-34.10858	1647.80377	-7.061299999999903	103.64973	1627.25036	19.607700000000115	-17.40105	1777.99641	-3.2154099999998933	39.71979	2017.44999	12.105080000000129	41.29596999999999	1920.29413	73.8914100000001	45.01576000000001	1926.03143	-57.75130999999987	-8.57443	1921.36593	6.556920000000116	-25.40805000000002	1744.77049	176.4693400000001	27.36252000000002	1764.44125	-172.74954999999989	-84.60945000000004	1620.56735	376.2031300000001	-39.02627000000004	1592.06998	372.4203000000001	46.15061000000005	1653.47803	-391.0192499999999	79.75481000000005	1615.8388	-372.0420099999999	-65.75832000000007	1510.04546	561.5621400000001	-90.78809000000007	1543.01919	576.3782600000001	-50.62697000000004	1592.51131	363.5306300000001	104.91068000000007	1539.67768	-564.7775599999999	93.68826000000007	1577.00167	-585.0787799999999	66.64098000000004	1618.86507	-368.5113699999999	-170.92118000000008	1460.67944	693.8353400000001	-103.46059000000008	1466.35369	649.7652900000002	-78.68301000000007	1509.1628	603.2364000000001	91.04028000000008	1511.4325	-736.9596799999999	109.26094000000009	1498.57086	-659.2854299999999	113.54816000000007	1536.33618	-602.9842099999998	-32.658490000000015	1219.90187	140.59544000000008	-52.77058000000002	876.48332	105.16287000000005	-33.35201000000001	876.73551	40.85464000000005	-6.4308200000000095	876.04199	81.70928000000006	6.809110000000018	1219.58663	-142.54990999999993	-11.978979999999988	876.10504	-107.05428999999994	-3.971979999999995	877.36598	-40.287209999999945	29.63222000000001	876.92465	-75.90892999999994	4.91768999999999	839.15933	85.99649000000005	-94.76007000000001	472.60243	94.25569000000002	-77.23292	471.46758	36.69352000000002	43.50262000000001	842.62693	-81.64622999999995	-32.59543999999999	474.36775	-136.30821999999998	-24.46234999999999	468.81959	-76.98072999999997	-121.80735	331.69175	46.71804000000001	57.499119999999984	335.15935	97.78633000000002	14.437829999999979	335.85287	174.76707000000002	58.44482999999998	335.97897	147.46759000000003	-84.04203000000001	330.30471	67.77583	122.50086999999998	341.02275	183.27845000000005	-65.25393999999999	330.87214	-93.18388	120.79859000000002	339.19438	-83.34850999999998	105.22591000000001	334.90716	-170.03851999999998	137.82136000000003	337.93343	-130.00349999999995	-22.697019999999988	330.05252	-100.81259999999999	209.94745000000003	343.92293	-143.24342999999993	
